
<global>
amp_veltrack=0
ampeg_release=0.35
</global>

<group>
group_label=PP
lpc_hicc1=42
lpc_locc1=0

<region>
hikey=a3
hivel=127
lokey=g#3
lovel=1
lpc=u/YQQe3cxsH5WPxBTo7DwV8EW0FWYfrAGsrRQFnO1MAde7BAMS4kwAU9vr8x6HdA6KJ3wCi2I0CWPD8+tOpNwAfTmkD1s5LAWKtpQOF6t79eR/e/IQVUQFNwCMDV8TE/
lpc_rms=-35.77
pitch_keycenter=a3
sample=Violin2Solo_trill_dim5th_PP_A3.opus
</region>

<region>
hikey=a4
hivel=127
lokey=g#4
lovel=1
lpc=U/SWQGJ/K8Fqd0lBBRQqwUqS+kB0A5fALIj4P9ZPeb/YtBdA+3phwLTvSECQnhvAdXoSQKt3MMD0eElA4wckwPKK9T82lqe/uhaLPy+Qkb6fVRq/PW6SPsJcAD9uwHS+
lpc_rms=-33.07
pitch_keycenter=a4
sample=Violin2Solo_trill_dim5th_PP_A4.opus
</region>

<region>
hikey=a5
hivel=127
lokey=g#5
lovel=1
lpc=bB6QQKuz08B0I9ZA7uluwKxdLkAWmuu/WDofQPDqrb/yXHQ//oSqPxzAs788eNM/CAEGPnpzsL6B6qs/MQ09vWhzED8Wd4G+ZIP7P0i9IsDsPURAWh2Tv99AkD1V364/
lpc_rms=-27.06
pitch_keycenter=a5
sample=Violin2Solo_trill_dim5th_PP_A5.opus
</region>

<region>
hikey=a6
hivel=127
lokey=g#6
lovel=1
lpc=j/DnQGP/2MClX8JA0qHYv3m5LkA8tTG/DDUbQOYjBT/MCRdA+FZewDa3WEAfjp6/wZRxQGysyMBBOl9A/VjPPib2zL8s4oM/V3Wqvg1qrr4LzgI+rbzSv/UbN0ANDRM+
lpc_rms=-28.46
pitch_keycenter=a6
sample=Violin2Solo_trill_dim5th_PP_A6.opus
</region>

<region>
hikey=b3
hivel=127
lokey=a#3
lovel=1
lpc=ihMeQWY03ME3MA5CY2bfwYoVZkGrp7LAFe9ZQG5ttMBbmelAw4+RwC04tb6CsypAf1a9v4fhWL+Mnm5Azhy0wK72t0DsX5XAu+hfQHiFvb+G/izAXHinQEGohsDp3MU/
lpc_rms=-33.78
pitch_keycenter=b3
sample=Violin2Solo_trill_dim5th_PP_B3.opus
</region>

<region>
hikey=b4
hivel=127
lokey=a#4
lovel=1
lpc=7aalQOkCPcHQr1ZBO4chwSg93kDh/JfAx3U6QMZUzr+6h+w/mInev2VHXD/HoLm+1YZsP9sSur/OPR1AWelUwLCjeUDcf1rANF8tQJ9alr+aFSq/ff67P4lJcb8284c+
lpc_rms=-35.76
pitch_keycenter=b4
sample=Violin2Solo_trill_dim5th_PP_B4.opus
</region>

<region>
hikey=b5
hivel=127
lokey=a#5
lovel=1
lpc=YQusQMga4sBQrrtA/RlPwHMDDUCqkI+/RpnrP+kozL9yE9M/jaFZPwZuDL414c2+eX46QOMjIsBz/kJAuTmivxWLLDwmBSy/WnsmQEKQwr+qC5A/+C5QPldF5T7sc5y+
lpc_rms=-27.28
pitch_keycenter=b5
sample=Violin2Solo_trill_dim5th_PP_B5.opus
</region>

<region>
hikey=C#7
hivel=127
lokey=a#6
lovel=1
lpc=D1IRQWy1zsD4K0JA35eIPxMe+D9Ew0Y/7zoBQD9JGT9VfQjA2XlevR/JpkCfnVPAT6VVwAiRaUAclkO++yQLv9je8D77vuW/Y+zxP/+k0r87DqVAC4qKv2Vk2L+0has/
lpc_rms=-28.41
pitch_keycenter=B6
sample=Violin2Solo_trill_dim5th_PP_B6.opus
</region>

<region>
hikey=c#4
hivel=127
lokey=c4
lovel=1
lpc=1mujQZ6tbsKmBZxCCQxzwglJBEKrMJLB/JlkQQbKasHRi1FBG7jrwIhddT7E4KJAiRDgwFdpwEATAjS/UZWwwGeqGUFJAQzBIWO4QEY7dcBS578/oKaGPzrj+L9nBEE/
lpc_rms=-27.08
pitch_keycenter=c#4
sample=Violin2Solo_trill_dim5th_PP_C#4.opus
</region>

<region>
hikey=c#5
hivel=127
lokey=c5
lovel=1
lpc=xysjQaXosMGe+8JB2mqfwdmFaEGPfQTBcBNqQM3xE8C59Mc/tkJkv02VnL8w6z5AMXDUv9gts76QKAhArGM7wE78ZkCiz37AZuCWQNQqGMBx77U9A2Ajv9eqXj9BJsU+
lpc_rms=-26.98
pitch_keycenter=c#5
sample=Violin2Solo_trill_dim5th_PP_C#5.opus
</region>

<region>
hikey=c#6
hivel=127
lokey=c6
lovel=1
lpc=JH25QPIDAcFKrdxAE619wIuze0BO9QLASRhLQGTZ0r9Edw5AYrEOPR5aaj/GMqY9Mr8TQJi27b/Y4GtAUt9IwAcekED2szLA3FNaQEsQqr8uNgBAkw1ewJIeT0AA7bU9
lpc_rms=-28.45
pitch_keycenter=c#6
sample=Violin2Solo_trill_dim5th_PP_C#6.opus
</region>

<region>
hikey=d#4
hivel=127
lokey=d4
lovel=1
lpc=t8cRQfZ1xsEFjvxBSTzKwad2dUH+UArB34aUQPHBZMCVTphAZ0+owJTkdEDPFwrADO+PP/3/hb+YNhRAZMqGwJAex0C4ELjAeTwoQAOOdD/24WnAMrKFQC75OsAaYJI/
lpc_rms=-33.34
pitch_keycenter=d#4
sample=Violin2Solo_trill_dim5th_PP_D#4.opus
</region>

<region>
hikey=d#5
hivel=127
lokey=d5
lovel=1
lpc=y3nDQEihVcGWqWRBQe8nwZcZ80A8uJvAj4s4QKUtA8CW3+A/CJUrvwFDhr8/lx1AIaTQv67H1b7lmQlAt+4JwCs3/T8oljHAadOAQFjoN8DutuA/cr8UwJoTQkCskcG/
lpc_rms=-32.46
pitch_keycenter=d#5
sample=Violin2Solo_trill_dim5th_PP_D#5.opus
</region>

<region>
hikey=d#6
hivel=127
lokey=d6
lovel=1
lpc=ohWSQIQD0MCqfOVAW5KOwLvhgkAONqS/8Y8ZQMMLxL/mPkZAI4MQv+SNuz9jVTk+IYcMQAHxz7+HGSFAUhU6P/Fczr4RCuY/GqZqvvR3mb8nAEFAWG7Lv1K0JD9XDsw+
lpc_rms=-28.73
pitch_keycenter=d#6
sample=Violin2Solo_trill_dim5th_PP_D#6.opus
</region>

<region>
hikey=f4
hivel=127
lokey=e4
lovel=1
lpc=JF7aQKbuj8Gx1LVBIVOUwUpGREGdKgDBn2qkQHEoicD9C5lAI+5vwHzRwD93vmq+N36RvizeIj3FIbM/1OQ3wN92L0Aj0IK/u/dgvR22XD+6B0XAeaeaQKsobsAMG6Y/
lpc_rms=-36.40
pitch_keycenter=f4
sample=Violin2Solo_trill_dim5th_PP_F4.opus
</region>

<region>
hikey=f5
hivel=127
lokey=e5
lovel=1
lpc=rDCNQDFb88BrH9pAGGuKwOUdXUDiBOq/Aa5ePpcgFr82bIE//dEXv18rWD8EULm/4dnWP/1wAcCVvxtAwMGEv2bHpL2CoIE/KepevxoasT8qYmO/uSIHv/3jvD+vw4i/
lpc_rms=-29.88
pitch_keycenter=f5
sample=Violin2Solo_trill_dim5th_PP_F5.opus
</region>

<region>
hikey=f6
hivel=127
lokey=e6
lovel=1
lpc=7l+SQDLCmcB0H5JAPjElwO/GAkApgyU/fOepP2HAu730DKQ/Bq/Pvakgaj/exvE+Rr7FvTiCVj/DJts+NNERPgz8gT98xWbAM2B1QIbhHsC2yuc/dxc4v5SPmT2a4oW/
lpc_rms=-31.35
pitch_keycenter=f6
sample=Violin2Solo_trill_dim5th_PP_F6.opus
</region>

<region>
hivel=127
key=g3
lovel=1
lpc=uNqcQePPZsL42pBCDTRIwkcqtkGTumPBChl8QbPMYMFe/QVBnbSowDM+hkAp/TY+1KRtwHatI0AjcZ0/2VqCwMdTq0CGW4fADz65PyWZrj9yf4jA6xq0QO0uhMAoo7s/
lpc_rms=-29.20
sample=Violin2Solo_trill_dim5th_PP_G3.opus
</region>

<region>
hikey=g4
hivel=127
lokey=f#4
lovel=1
lpc=amw+QS7s8MHlhBJCdRDuwXsgqUEhCYHBlzw9QckCEMFiGfVAzbPdwGEceUBtwI8/0p5twG44JkCdHqM/XABtwAgGjkBCgIzA0buTQKkyHcBePrC/x2E5QMTn1b+V8gM/
lpc_rms=-32.37
pitch_keycenter=g4
sample=Violin2Solo_trill_dim5th_PP_G4.opus
</region>

<region>
hikey=g5
hivel=127
lokey=f#5
lovel=1
lpc=cTVdQNo4ssBnOZxAVZg5wGkiIUA0whLAd54DQK7Ipb+v9lg/sWl8PYSgLr7wiTY+VCFlP9C6ur+ZPu0/KTlqv4ofUD+eg4q/YD7HPz3nAr+/o9K+puKsPgwYtr7HnfQ+
lpc_rms=-29.78
pitch_keycenter=g5
sample=Violin2Solo_trill_dim5th_PP_G5.opus
</region>

<region>
hikey=g6
hivel=127
lokey=f#6
lovel=1
lpc=EX/jQBhy38CZxNtAjEVFwBs2ukCfYTbAb9hpQEic2TujAApAFhuMPrh057w9gyG/EXwhQLr0CcCAhh5AvTjYwNwZpUCLmYnA8zW9P+tyTMDuobU/kHk0wC5ViL2cDqC/
lpc_rms=-29.21
pitch_keycenter=g6
sample=Violin2Solo_trill_dim5th_PP_G6.opus
</region>
</group>

<group>
group_label=MF
lpc_hicc1=84
lpc_locc1=43

<region>
hikey=a3
hivel=127
lokey=g#3
lovel=1
lpc=5UIWQeNZ2cFeXRJC2PHrwXiifUEh3u/AM1utQBIxp8AqHJVAqDBSwFt4jD+YFLm+ByUxP3jWRL4oKqA+/A36v807fkDrmanAwyepQMmhMcAhlzq/Pv0tQE76D8Ctjz8/
lpc_rms=-28.37
pitch_keycenter=a3
sample=Violin2Solo_trill_dim5th_MF_A3.opus
</region>

<region>
hikey=a4
hivel=127
lokey=g#4
lovel=1
lpc=6LOEQCKnDsHmsRpBgU3qwF4VsEDKWYLAOgAPQMmW2L+DbARAzpCYvwbnnL5pUEY/kvF9vsb3pb63VVs/Y6yvv9YX/j9l2wLAAgrYPzDhO79coAW9GFF+PvZglr1PFho9
lpc_rms=-25.59
pitch_keycenter=a4
sample=Violin2Solo_trill_dim5th_MF_A4.opus
</region>

<region>
hikey=a5
hivel=127
lokey=g#5
lovel=1
lpc=KxeKQGc3z8DuJcFA/+QjwP7VBD/dduM+U6JjPgQMNj5o+WI+HMArPxPjM76khw8/vxJFP/5R3b4ewH0/5ZaBvjfijD8p7xC/vVOIP8F61L8rRQ1AXiVhv8olvrytMJY/
lpc_rms=-21.99
pitch_keycenter=a5
sample=Violin2Solo_trill_dim5th_MF_A5.opus
</region>

<region>
hikey=a6
hivel=127
lokey=g#6
lovel=1
lpc=6YAQQbTeAcEqggBBHSXRv9nqjEAY+Ly/nlSjQL5/9j5YwixAjbqBvz/xrj8/GfE/5hr+P3TgK8Bbtr+/uKeYQDAxfsCAo4o/Z5u8PWnHf7+OKxG/lgiFvwwzkj8UCns/
lpc_rms=-21.57
pitch_keycenter=a6
sample=Violin2Solo_trill_dim5th_MF_A6.opus
</region>

<region>
hikey=b3
hivel=127
lokey=a#3
lovel=1
lpc=4BYZQWmR0sHkJwJCBVu9wQOnSkF8sQTBZArXQD5usMBmi6dAUDd9wJC5Jj/fRMw/ZHGav+s0KD53TyQ/afbAvzVyHUAYkAnAgiRmP0pLKz8eXCXAUztFQJe4EMAq42E/
lpc_rms=-27.33
pitch_keycenter=b3
sample=Violin2Solo_trill_dim5th_MF_B3.opus
</region>

<region>
hikey=b4
hivel=127
lokey=a#4
lovel=1
lpc=SPGiQNXqL8EYWTtBNYwBwYtsq0AmCHnA/YE3QKUxAcBVgPc/1nOlvw4ojT6sxBE/gvquvsCSSL6V7Yw/dGjOv3bNFEBv8A3AI+8AQICPn79H4f09QE1/PkibJT4XP2++
lpc_rms=-25.76
pitch_keycenter=b4
sample=Violin2Solo_trill_dim5th_MF_B4.opus
</region>

<region>
hikey=b5
hivel=127
lokey=a#5
lovel=1
lpc=cq+lQPEy+cA2QONA8xVrwMGLgj9jcS8/QlMXP8oaGL6DpeE+pl4EPr6vej7+WKC+LNUAQLmDwb8LnuM/rsuIv+hgvz/o5wPAGJ1MQAxZB8BXFFw/wGnDP2Ufsb97zKs9
lpc_rms=-22.23
pitch_keycenter=b5
sample=Violin2Solo_trill_dim5th_MF_B5.opus
</region>

<region>
hikey=C#7
hivel=127
lokey=a#6
lovel=1
lpc=5P28QIi6a8DgJ1RAgNukP6rxuT/FL6s/hV8SQCmvvz9ueBO/LHOsvmkHb0C9U8q/58IowPS41T/2jlO+dWUFwAVpKD/3h8q/4a7QvttOyr/Oduk/aZoMP6LI2r/fdSY/
lpc_rms=-25.07
pitch_keycenter=B6
sample=Violin2Solo_trill_dim5th_MF_B6.opus
</region>

<region>
hikey=c#4
hivel=127
lokey=c4
lovel=1
lpc=i6qQQYj6TcJsO4FC0GE/wucVykFdylnB7nMGQSkK4cAu5+pAYPKNwEFux7/WOahApvCbwIfAMkDowqw/xS/HwPulHkHcDSbBBgUEQbYIW8DsJuW/j8xXQMik479FtEA+
lpc_rms=-20.02
pitch_keycenter=c#4
sample=Violin2Solo_trill_dim5th_MF_C#4.opus
</region>

<region>
hikey=c#5
hivel=127
lokey=c5
lovel=1
lpc=FDDnQKScgMESYIdBKSM9wck98UB//ZXAVZgXQNyDMsAjppFABed2wIf59z9ongi/e76iPn28tb+EpV5Afy6IwGeKkUA6CoDAKSABQCs0Uz+WWBfA0dgQQAzi579uDqI/
lpc_rms=-21.44
pitch_keycenter=c#5
sample=Violin2Solo_trill_dim5th_MF_C#5.opus
</region>

<region>
hikey=c#6
hivel=127
lokey=c6
lovel=1
lpc=FpOyQMfN4sADar1Am4NRwAMrdECF/tC/0K8ZQAzoGL/8+eQ/eEAEPdEFuz9nX4K+S7sqQKlN27+fBGxAx/lCwLdyjUBedQnAHmkiQPUqob4cZN8/UIo9wCBhFkCgHCw/
lpc_rms=-20.56
pitch_keycenter=c#6
sample=Violin2Solo_trill_dim5th_MF_C#6.opus
</region>

<region>
hikey=d#4
hivel=127
lokey=d4
lovel=1
lpc=OwkaQY9N0ME4kf1BB866wWipQ0Hai9DA5vurQFMenMDxYFlASCoawEq04D+8i16+iB53v6YQuj5dF+4/R2R5wA2Zl0A59GfAudrEP0iOjzuBKbe/KAU6QNZiRMC+jqY/
lpc_rms=-24.66
pitch_keycenter=d#4
sample=Violin2Solo_trill_dim5th_MF_D#4.opus
</region>

<region>
hikey=d#5
hivel=127
lokey=d5
lovel=1
lpc=5j2fQBhSJsFvpzBBtjX+wIsmuEDfDW/A62HlP4ZyS78NSpM/fPgtvz+AHr5Cn4Y/vEquvwIpvz++yqi+NfRuv8wm9z9q2u2/Kg3VP1y3I79X+DK9bvJJvvDenD/L2ju/
lpc_rms=-23.82
pitch_keycenter=d#5
sample=Violin2Solo_trill_dim5th_MF_D#5.opus
</region>

<region>
hikey=d#6
hivel=127
lokey=d6
lovel=1
lpc=vZ+xQCIm9sDneOpA6lYCwBRIkj+IUps/3enLP+eq976H3EpAU2SSvrDC/j8A+6A+BJdKQKUtyL/e/R1AdwfgP1xsQr6/18k/j0/cP4pYV8CLUaJAzz3Cv5BsHb49H7g/
lpc_rms=-21.77
pitch_keycenter=d#6
sample=Violin2Solo_trill_dim5th_MF_D#6.opus
</region>

<region>
hikey=f4
hivel=127
lokey=e4
lovel=1
lpc=+iQJQZWGucH0/upBEC+/wYP8cEGlKBPBrGDPQF7IpcD7KHtADcgHwKnQFj7XKq0/eoyxv/5SoT4mfqg/bas6wJfEdECVxWDANrciQIuzhL/VJzO/ndfeP2cZCsDT3pU/
lpc_rms=-28.06
pitch_keycenter=f4
sample=Violin2Solo_trill_dim5th_MF_F4.opus
</region>

<region>
hikey=f5
hivel=127
lokey=e5
lovel=1
lpc=L9CBQI7I5sCi8tdAIX6QwGHdQUCdwLS/N9CBPzGmjL/SrqU/yhZgv848YD9/2rW++rI6PxlXqr/fWs4/XBGjv/c7yT+QSWO/I+o0PzA/c79bAG8/8ONFvza7fz/jliS/
lpc_rms=-21.90
pitch_keycenter=f5
sample=Violin2Solo_trill_dim5th_MF_F5.opus
</region>

<region>
hikey=f6
hivel=127
lokey=e6
lovel=1
lpc=umKdQBpBdcCieWBA3z3Kv0JFtT/sEdA/tUXFP0gxvz6aJKQ/oguSPvnnoD/swQg/lbl7PsXRlD9xWgs/6oAiPzLSHT8AYE7ADyxMQAYj3b9b0sM/UkTAvn/ma76ojqu/
lpc_rms=-26.43
pitch_keycenter=f6
sample=Violin2Solo_trill_dim5th_MF_F6.opus
</region>

<region>
hivel=127
key=g3
lovel=1
lpc=bbMuQdxd88GyORtClAbvwZo7ckGmta/Ai4nfP1gpEMDMHIJAAOdlwMsZRj+Cc5w//kScv0XgvD04shBAng6RwGL5vkD65arAUrFdQOPNlL96iQTApsyXQOt8icBT58U/
lpc_rms=-24.54
sample=Violin2Solo_trill_dim5th_MF_G3.opus
</region>

<region>
hikey=g4
hivel=127
lokey=f#4
lovel=1
lpc=orEcQWrAv8F2fNZBGJWXwUmqTEHuRiTBTHDFQOqBH8Cj/RhAjTNtwKk3LkBM4be9WOG/v4UYYj9rz9M/igp3wAmJn0BI+oDAuvoIQDSrZD39VsK/a34AQIwzir+a864+
lpc_rms=-23.53
pitch_keycenter=g4
sample=Violin2Solo_trill_dim5th_MF_G4.opus
</region>

<region>
hikey=g5
hivel=127
lokey=f#5
lovel=1
lpc=oeeIQM1a4sDI5MZAGYRywM+aMUBFFNe/+yy8P+xyRL8lnIg+74piP2XRFL/kNME+npgpPxqx077mH+Y+PVPNPCQU8T4ez8i+hqiAP3Uua78CvVw/9Y+VvywBLz8farg+
lpc_rms=-24.07
pitch_keycenter=g5
sample=Violin2Solo_trill_dim5th_MF_G5.opus
</region>

<region>
hikey=g6
hivel=127
lokey=f#6
lovel=1
lpc=gdnFQMkwn8BKDMpAgUkFwDeMVkBsFYY/f3P+Pxs31T4sZzVA1gV1PwuZ+T4DPnu/TNpJQKcP+r+edCJAYaSgwB8GPUB6cErAOChdP7Urvr+ye4C/qqrHv9NO1T6kFifA
lpc_rms=-24.94
pitch_keycenter=g6
sample=Violin2Solo_trill_dim5th_MF_G6.opus
</region>
</group>

<group>
group_label=FF
lpc_hicc1=127
lpc_locc1=85

<region>
hikey=a3
hivel=127
lokey=g#3
lovel=1
lpc=Y7kFQb8Ct8Fdg+RBkF6nwcVVKkF68dfAC3zdQKoYwsDlyntABj/fv9Fv0r6a6cU/kSXFv0XYKD4hTjVA4Ju3wKoYz0A6SZLA6a8TQIkMdr8iUM4+a6brvSZoBT05xee8
lpc_rms=-23.51
pitch_keycenter=a3
sample=Violin2Solo_trill_dim5th_FF_A3.opus
</region>

<region>
hikey=a4
hivel=127
lokey=g#4
lovel=1
lpc=iVaqQJD6QcHtRV9BWk0swaHp4kDEVm/ASILJP5KSlr/M5Jw/XDV8v98fCz8XybW+ZK3IPL15a769gn0/Ohmpv3J7zz+V+Ku/xUttP2mIPr7OEws8qElmvC/0ET6O8SQ9
lpc_rms=-18.97
pitch_keycenter=a4
sample=Violin2Solo_trill_dim5th_FF_A4.opus
</region>

<region>
hikey=a5
hivel=127
lokey=g#5
lovel=1
lpc=kxCSQKMnyMBsfLxAldALwImvmz98d7i+horDP2XXd74ILds+EbBrP656Xr7HDUQ/VNkOPwpNBT04lj4/5skJP6CQ0T2G7WE/e+TmPskYkL9kIzNAyFGlv0Y7Bj8VxJw/
lpc_rms=-20.49
pitch_keycenter=a5
sample=Violin2Solo_trill_dim5th_FF_A5.opus
</region>

<region>
hikey=a6
hivel=127
lokey=g#6
lovel=1
lpc=iSuzQHN+U8BjgZFAQFpkv9pZQECXdyQ+DggyQGImHz42IFZAxuICwLd8yz+wuo0+t6DzP4Y0V8AyUE0/lJZ8vM6rQ79UT46+lzeCvkirqr/npCI/2KARwOJsxz9JEyo/
lpc_rms=-21.57
pitch_keycenter=a6
sample=Violin2Solo_trill_dim5th_FF_A6.opus
</region>

<region>
hikey=b3
hivel=127
lokey=a#3
lovel=1
lpc=obQSQRbDxMErQfBBdCGvwewzMkHhNtPAttPGQHTr0MClCLxAq2tMwIF0G7+umCRAZAoKwAo4FT8dNgRAnxWJwNPLlkD67UTAZRjRP6k1kL+61ke/ALgpQI/AI8AWqIc/
lpc_rms=-24.43
pitch_keycenter=b3
sample=Violin2Solo_trill_dim5th_FF_B3.opus
</region>

<region>
hikey=b4
hivel=127
lokey=a#4
lovel=1
lpc=kHuZQLrqKMGNTUNB4tEWwaQ9xkCan1TA+AnqP9Hgz79eZ+o/POatv5kYhT8cI16/bGdSP48pl79iLgRAapYJwL5tA0AIRaa/V6VqP3n+nL6syzs9SleQvrgyGz/RBau+
lpc_rms=-22.13
pitch_keycenter=b4
sample=Violin2Solo_trill_dim5th_FF_B4.opus
</region>

<region>
hikey=b5
hivel=127
lokey=a#5
lovel=1
lpc=FMp3QJq6jsDVUYtA39MjwCpcEEDmCqa/dl0CQJCRj7/9Ieg/v7qZv9iFvj9isTu/CmnUPzADV7+zG6I/uXiGvrvvtD+o5Q3AYDhQQM+I77/lxuk/LFNFvy2vmD/wHnG/
lpc_rms=-23.24
pitch_keycenter=b5
sample=Violin2Solo_trill_dim5th_FF_B5.opus
</region>

<region>
hikey=C#7
hivel=127
lokey=a#6
lovel=1
lpc=m2afQGTkRMDTvlpANrwNP7VgxT/nvJk/12wBQGuYnT+m1Ts+jawOvzOwREChsEm/LwkOwDZ06T9ClwC/mv6Nv31JCj8XO6y/aPq1Ppkky7/rTsQ/6+JXP+QwtL8zKks/
lpc_rms=-23.51
pitch_keycenter=B6
sample=Violin2Solo_trill_dim5th_FF_B6.opus
</region>

<region>
hikey=c#4
hivel=127
lokey=c4
lovel=1
lpc=1TiKQfOBR8I+BIJC4c9NwsCQ60GUKYzBIvpTQc+kKsFrgupALrtYwHyTLb8WiWhA+f+BwN2q/T+v029Ap70lwWEGY0EyukPBvzfrQI7MSsA+IyQ+Cvg7P5smP72qYn6+
lpc_rms=-16.93
pitch_keycenter=c#4
sample=Violin2Solo_trill_dim5th_FF_C#4.opus
</region>

<region>
hikey=c#5
hivel=127
lokey=c5
lovel=1
lpc=zfoSQa3SoMFxTrhBzlmUweYkOUFs47vA58xRQHQ9T8C+zV1AocAfwLMyWD/pLvc+rRoePs+THsAvFJZAau6dwJAgmEATAEXAzp8MQKQuhr+hqLK/j+BZQBjSecBmwidA
lpc_rms=-18.77
pitch_keycenter=c#5
sample=Violin2Solo_trill_dim5th_FF_C#5.opus
</region>

<region>
hikey=c#6
hivel=127
lokey=c6
lovel=1
lpc=PT+QQJi/u8Ag1aZAOMkywHzMI0A7JA2/3jn/P1Lrlr/ycQZAeLNBvztK0z/TIzi+L7CiP6ACB76utd0/l5f+v5vZYUC07/2/pqkXQHKbUL/yxcc/B/UZwFbv2z/ksqo+
lpc_rms=-19.07
pitch_keycenter=c#6
sample=Violin2Solo_trill_dim5th_FF_C#6.opus
</region>

<region>
hikey=d#4
hivel=127
lokey=d4
lovel=1
lpc=3IghQVUP6sEgchxCFmMAws9tnUGQ3D3B2xn9QL1br8ADX5FAt3uBwCRhAkDfAMU94nSIvsYGnr80LjNAWbp/wH97pUDsPa7AD/mRQP6zEcBLMgO/VkMQQBXZ47+69uw+
lpc_rms=-21.01
pitch_keycenter=d#4
sample=Violin2Solo_trill_dim5th_FF_D#4.opus
</region>

<region>
hikey=d#5
hivel=127
lokey=d5
lovel=1
lpc=wiLIQPnnYsEnIYVBN89JwW//BEHqdp7AWGsUQLdapD5+v96/qlMYQLg0BcBWBqc/9iR1vgyKtb7ZeIA/woNTv76VCT+yA5A+fPbMvF1giT2herQ+Yj6JvyEHBkBGOoW/
lpc_rms=-20.65
pitch_keycenter=d#5
sample=Violin2Solo_trill_dim5th_FF_D#5.opus
</region>

<region>
hikey=d#6
hivel=127
lokey=d6
lovel=1
lpc=AXaPQOChn8CYKaFASiP2v1ea4D9lL08/4YPUP5LjFb8l7ENA1YmjPUKZxD95aWs/HbIYQJ2aGr8hfKc/uK/1P54XqD4xbTQ/DmgHQL+8EMAWBzhAOi1+vT4qLj6etjk/
lpc_rms=-19.92
pitch_keycenter=d#6
sample=Violin2Solo_trill_dim5th_FF_D#6.opus
</region>

<region>
hikey=f4
hivel=127
lokey=e4
lovel=1
lpc=/m/qQBoVm8H1C8RBwZigwXg/XkGS5x3BcPrVQIA7l8D08ZhALMuLwHUNDEAz2Jc8KQGDv5XnND85mjw/T/oJwOydQECqnRDAaxfQPsVJzT8zIi/AN/wQQE9fkb/V4z0+
lpc_rms=-23.93
pitch_keycenter=f4
sample=Violin2Solo_trill_dim5th_FF_F4.opus
</region>

<region>
hikey=f5
hivel=127
lokey=e5
lovel=1
lpc=zpSIQEtF58ApFddA0dhqwKvj+j9whWC/NXFtP9uNM79IwBY//1gdv9/Q2z+DHtm/k/GEP00A274OVxo/VgzivmlKFj/49xc/f/o1vtfEAr9v7Xw/Vqn4viGvhD6CqGC+
lpc_rms=-18.47
pitch_keycenter=f5
sample=Violin2Solo_trill_dim5th_FF_F5.opus
</region>

<region>
hikey=f6
hivel=127
lokey=e6
lovel=1
lpc=rTHfQDZq38DYbL9AItX7v2pHPkAC++4/58XgP8SaXD6EIV9A8OEVPkcxMUA6OARAiOC1vu7qGEAd9xRAAprcvgXhekBNk5/AEPeqQNC0or/4jME/WrzwvqvTgj99pYe/
lpc_rms=-20.25
pitch_keycenter=f6
sample=Violin2Solo_trill_dim5th_FF_F6.opus
</region>

<region>
hivel=127
key=g3
lovel=1
lpc=/P1SQajCEsJzazVCAqgEwp5uiEEGZyHBhJMWQT+vFMHkrdZAd6oAwOkZsr+W8sI/OEglPsd5BsDM9KRAJWPnwKOP50DE5bTAiVhrQMnM37/4y2+/0bI8QDqAIMDt31w/
lpc_rms=-19.37
sample=Violin2Solo_trill_dim5th_FF_G3.opus
</region>

<region>
hikey=g4
hivel=127
lokey=f#4
lovel=1
lpc=/+xJQQIhBMJSviVCAlf+wakhkUGlyzDBekYIQYkh1sCDyalAXcJxwNA9AT9BKOE/eBARwItrKT/QftY/FDtFwBrskUD6l0fA5Of4PtZDuT8bxJa+Tbf3vy2ZI0BewVO/
lpc_rms=-18.69
pitch_keycenter=g4
sample=Violin2Solo_trill_dim5th_FF_G4.opus
</region>

<region>
hikey=g5
hivel=127
lokey=f#5
lovel=1
lpc=tqtuQP7/rMBo059AeqoowDaE2z8CHoG/zSjsPzxgqb8Osi0/PHMSP/YQJr85I2U/xWNjPfv4oz765+i+AxSfP/20Sr+W9zs/C+/SPsoBkbyqUr+9O5qxvoEp2z1NO2o+
lpc_rms=-22.92
pitch_keycenter=g5
sample=Violin2Solo_trill_dim5th_FF_G5.opus
</region>

<region>
hikey=g6
hivel=127
lokey=f#6
lovel=1
lpc=uQbCQGVXoMBuArtA/9XEv0fNNEAYBOg/QfrFPyT7PT3Y/2ZAm1j6PkZadD/9EDu/iRAkQFb2kr9JFylAwQWywHLneUDo/UvAWaFMP6PTNb+xGuK/Iadjv6I54T5/7hTA
lpc_rms=-21.96
pitch_keycenter=g6
sample=Violin2Solo_trill_dim5th_FF_G6.opus
</region>
</group>